<svg height="512pt" viewBox="0 0 512 512" width="512pt" xmlns="http://www.w3.org/2000/svg"><path d="m398.199219 133.800781-42 76.199219c-3.601563 8.398438-10.5 15.300781-19.5 18.601562-17.699219 6.597657-36.898438-2.703124-43.199219-20.101562 6.300781 17.398438-2.699219 36.898438-20.398438 43.199219-5.703124 2.101562-11.402343 2.699219-17.101562 1.800781-11.398438-2.097656-21.898438-10.199219-26.101562-21.898438 6.300781 17.398438-2.699219 36.898438-20.097657 43.199219-17.402343 6.300781-36.902343-2.699219-43.199219-20.101562 6.296876 17.402343-2.703124 36.902343-20.101562 43.203125-17.699219 6.296875-36.898438-2.703125-43.5-20.101563l-13.800781-37.800781h-59.199219v-180h281.199219zm0 0" fill="#ffbd86"/><path d="m398.199219 133.800781-42 76.199219c-3.601563 8.398438-10.5 15.300781-19.5 18.601562-17.699219 6.597657-36.898438-2.703124-43.199219-20.101562 6.300781 17.398438-2.699219 36.898438-20.398438 43.199219-5.703124 2.101562-11.402343 2.699219-17.101562 1.800781v-193.5h55.199219zm0 0" fill="#f6a96c"/><path d="m256 300c-57.898438 0-105 48.101562-105 106s47.101562 106 105 106 105-48.101562 105-106-47.101562-106-105-106zm0 0" fill="#64e1dc"/><path d="m361 406c0 57.898438-47.101562 106-105 106v-212c57.898438 0 105 48.101562 105 106zm0 0" fill="#00c8c8"/><path d="m45 270h-30c-8.289062 0-15-6.710938-15-15v-210c0-8.289062 6.710938-15 15-15h30c8.289062 0 15 6.710938 15 15v210c0 8.289062-6.710938 15-15 15zm0 0" fill="#ff637b"/><path d="m358 324-90 121c-2.699219 3.601562-6.601562 5.699219-10.800781 6h-1.199219c-3.898438 0-7.800781-1.5-10.5-4.5l-30-30c-6-5.699219-6-15.300781 0-21 5.699219-6 15.300781-6 21 0l18 17.699219 1.5-2.097657 78-105.101562c5.101562-6.601562 14.398438-8.101562 21-3 6.601562 5.097656 8.101562 14.398438 3 21zm0 0" fill="#faecd8"/><path d="m358 324-90 121c-2.699219 3.601562-6.601562 5.699219-10.800781 6h-1.199219v-39.902344l78-105.097656c5.101562-6.601562 14.398438-8.101562 21-3 6.601562 5.097656 8.101562 14.398438 3 21zm0 0" fill="#f4d7af"/><path d="m482 30v180h-125.800781c3-7.5 3.601562-16.199219.601562-24.601562-1.199219-3-18.601562-51.597657-42-115.5-2.101562-6-7.800781-9.898438-14.101562-9.898438h-47.699219l-69 55.199219c-12 9.898437-30.597656 9-42.300781-4.5-10.5-13.5-8.101563-31.800781 4.800781-42.300781l77.398438-61.800782c5.101562-4.199218 12.003906-6.597656 18.601562-6.597656h13.5 77.699219c7.800781 0 15.601562 3.300781 21 8.699219l12.601562 12.597656c5.699219 5.699219 13.199219 8.703125 21 8.703125zm0 0" fill="#fed2a4"/><path d="m482 30v180h-125.800781c3-7.5 3.601562-16.199219.601562-24.601562-1.199219-3-18.601562-51.597657-42-115.5-2.101562-6-7.800781-9.898438-14.101562-9.898438h-44.699219v-60h77.699219c7.800781 0 15.601562 3.300781 21 8.699219l12.601562 12.597656c5.699219 5.699219 13.199219 8.703125 21 8.703125zm0 0" fill="#ffbd86"/><path d="m497 240h-30c-8.289062 0-15-6.710938-15-15v-210c0-8.289062 6.710938-15 15-15h30c8.289062 0 15 6.710938 15 15v210c0 8.289062-6.710938 15-15 15zm0 0" fill="#575f64"/></svg>