<svg height="480pt" viewBox="0 0 480 480" width="480pt" xmlns="http://www.w3.org/2000/svg"><path d="m0 192v-192h224v144h-176zm0 0" fill="#8bd2f5"/><path d="m480 192v-192h-224v144h176zm0 0" fill="#8bd2f5"/><path d="m400 64c0-17.671875-14.328125-32-32-32s-32 14.328125-32 32c0 11.816406 6.472656 22.015625 16 27.558594v20.441406h32v-20.441406c9.527344-5.542969 16-15.742188 16-27.558594zm0 0" fill="#f0d365"/><path d="m240 480v-32c0-44.183594-35.816406-80-80-80h-80c-44.183594 0-80 35.816406-80 80v32" fill="#568e53"/><path d="m136 368h-56c-44.183594 0-80 35.816406-80 80v32h216v-32c0-44.183594-35.816406-80-80-80zm0 0" fill="#7ecb92"/><path d="m160 448 15.6875-78.441406c-5.070312-1.007813-10.320312-1.558594-15.6875-1.558594h-8l-32 40zm0 0" fill="#568e53"/><path d="m80 448 40-40-32-40h-8c-5.367188 0-10.617188.550781-15.6875 1.558594zm0 0" fill="#568e53"/><path d="m88 368 32 40 32-40" fill="#db9b7c"/><path d="m64 320h-16c-13.257812 0-24-10.742188-24-24s10.742188-24 24-24h16" fill="#db9b7c"/><path d="m176 272h16c13.257812 0 24 10.742188 24 24s-10.742188 24-24 24h-16" fill="#efbe9a"/><path d="m184 232v72c0 35.34375-28.65625 64-64 64s-64-28.65625-64-64v-72" fill="#db9b7c"/><path d="m108 366.839844c29.609375-5.625 52-31.601563 52-62.839844v-72h-104v72c0 31.238281 22.390625 57.214844 52 62.839844zm0 0" fill="#efbe9a"/><path d="m136 216v8c0 26.511719-21.488281 48-48 48h-48v-40c0-30.929688 25.070312-56 56-56h48c30.929688 0 56 25.070312 56 56v40h-40c-13.257812 0-24-10.742188-24-24zm0 0" fill="#976947"/><path d="m175.496094 185.703125c-8.976563-6.117187-19.816406-9.703125-31.496094-9.703125h-48c-30.929688 0-56 25.070312-56 56v40h48c26.511719 0 48-21.488281 48-48v24c0 8.296875 4.207031 15.609375 10.609375 19.921875 18.09375-18.195313 29.390625-43.664063 29.390625-71.921875 0-3.480469-.175781-6.910156-.503906-10.296875zm0 0" fill="#c18e59"/><path d="m480 480v-32c0-44.183594-35.816406-80-80-80h-80c-44.183594 0-80 35.816406-80 80v32" fill="#568e53"/><path d="m376 368h-56c-44.183594 0-80 35.816406-80 80v32h216v-32c0-44.183594-35.816406-80-80-80zm0 0" fill="#7ecb92"/><path d="m400 448 15.6875-78.441406c-5.070312-1.007813-10.320312-1.558594-15.6875-1.558594h-8l-32 40zm0 0" fill="#568e53"/><path d="m320 448 40-40-32-40h-8c-5.367188 0-10.617188.550781-15.6875 1.558594zm0 0" fill="#568e53"/><path d="m328 368 32 40 32-40" fill="#db9b7c"/><path d="m304 320h-16c-13.257812 0-24-10.742188-24-24s10.742188-24 24-24h16" fill="#db9b7c"/><path d="m416 272h16c13.257812 0 24 10.742188 24 24s-10.742188 24-24 24h-16" fill="#efbe9a"/><path d="m424 232v72c0 35.34375-28.65625 64-64 64s-64-28.65625-64-64v-72" fill="#db9b7c"/><path d="m348 366.839844c29.609375-5.625 52-31.601563 52-62.839844v-72h-104v72c0 31.238281 22.390625 57.214844 52 62.839844zm0 0" fill="#efbe9a"/><path d="m376 216v8c0 26.511719-21.488281 48-48 48h-48v-40c0-30.929688 25.070312-56 56-56h48c30.929688 0 56 25.070312 56 56v40h-40c-13.257812 0-24-10.742188-24-24zm0 0" fill="#976947"/><path d="m415.496094 185.703125c-8.976563-6.117187-19.816406-9.703125-31.496094-9.703125h-48c-30.929688 0-56 25.070312-56 56v40h48c26.511719 0 48-21.488281 48-48v24c0 8.296875 4.207031 15.609375 10.609375 19.921875 18.09375-18.195313 29.390625-43.664063 29.390625-71.921875 0-3.480469-.175781-6.910156-.503906-10.296875zm0 0" fill="#c18e59"/><path d="m104 24h16v64h-16zm0 0" fill="#af4a47"/><path d="m104 104h16v16h-16zm0 0" fill="#af4a47"/><path d="m360 112h16v32h-16zm0 0" fill="#976947"/><g fill="#f0d365"><path d="m424 56h32v16h-32zm0 0"/><path d="m422.050781 32.21875 32-8.003906 3.882813 15.519531-32 8.007813zm0 0"/><path d="m422.035156 95.777344 3.882813-15.523438 31.996093 8-3.878906 15.519532zm0 0"/><path d="m280 56h32v16h-32zm0 0"/><path d="m278.042969 39.773438 3.882812-15.523438 31.996094 8-3.878906 15.519531zm0 0"/><path d="m278.058594 88.226562 31.996094-8.007812 3.882812 15.523438-31.996094 8.003906zm0 0"/></g></svg>