<svg height="512pt" viewBox="-30 0 511 512" width="512pt" xmlns="http://www.w3.org/2000/svg"><path d="m430.996094 464.402344h-348.824219c-11.59375 0-20.996094-9.398438-20.996094-20.996094v-422.40625c0-11.597656 9.402344-21 20.996094-21h348.824219c11.597656 0 21 9.402344 21 21v422.40625c0 11.597656-9.402344 20.996094-21 20.996094zm0 0" fill="#b9acac"/><path d="m451.996094 21v422.402344c0 11.601562-9.398438 21-21 21h-39.144532c11.601563 0 20.996094-9.398438 20.996094-21v-422.402344c0-11.601562-9.394531-21-20.996094-21h39.144532c11.601562 0 21 9.398438 21 21zm0 0" fill="#9e9797"/><path d="m267.015625 50.082031h-245.519531c-11.59375 0-20.996094 9.402344-20.996094 21v419.917969c0 11.59375 9.402344 20.996094 20.996094 20.996094h350.347656c11.597656 0 20.996094-9.402344 20.996094-20.996094v-322.941406c0-5.851563-2.441406-11.4375-6.738282-15.414063l-104.828124-96.976562c-3.878907-3.589844-8.972657-5.585938-14.257813-5.585938zm0 0" fill="#efe2dd"/><path d="m392.84375 168.058594v322.945312c0 11.589844-9.40625 20.996094-20.996094 20.996094h-29.554687c11.601562 0 20.996093-9.40625 20.996093-20.996094v-359.460937l22.816407 21.101562c4.292969 3.980469 6.738281 9.566407 6.738281 15.414063zm0 0" fill="#e1d3ce"/><path d="m281.644531 56.007812v78.089844c0 10.242188 8.304688 18.546875 18.546875 18.546875h85.910156zm0 0" fill="#cdbfba"/><g fill="#5a5a5a"><path d="m286.574219 189.714844h-179.804688c-4.25 0-7.695312 3.445312-7.695312 7.695312s3.445312 7.695313 7.695312 7.695313h179.804688c4.25 0 7.695312-3.445313 7.695312-7.695313s-3.445312-7.695312-7.695312-7.695312zm0 0"/><path d="m54.183594 247.296875c0 4.246094 3.445312 7.691406 7.691406 7.691406h80.652344c4.246094 0 7.691406-3.445312 7.691406-7.691406 0-4.25-3.445312-7.695313-7.691406-7.695313h-80.652344c-4.246094 0-7.691406 3.445313-7.691406 7.695313zm0 0"/><path d="m208.894531 254.988281c4.25 0 7.695313-3.445312 7.695313-7.691406 0-4.25-3.445313-7.695313-7.695313-7.695313h-37.390625c-4.25 0-7.695312 3.445313-7.695312 7.695313 0 4.246094 3.445312 7.691406 7.695312 7.691406zm0 0"/><path d="m331.46875 239.601562h-95.722656c-4.25 0-7.695313 3.445313-7.695313 7.695313 0 4.246094 3.445313 7.691406 7.695313 7.691406h95.722656c4.25 0 7.691406-3.445312 7.691406-7.691406 0-4.25-3.441406-7.695313-7.691406-7.695313zm0 0"/><path d="m61.875 293.628906h52.875c4.246094 0 7.691406-3.445312 7.691406-7.695312 0-4.246094-3.445312-7.691406-7.691406-7.691406h-52.875c-4.246094 0-7.691406 3.445312-7.691406 7.691406 0 4.25 3.445312 7.695312 7.691406 7.695312zm0 0"/><path d="m258.960938 285.933594c0-4.246094-3.445313-7.691406-7.695313-7.691406h-108.738281c-4.25 0-7.695313 3.445312-7.695313 7.691406 0 4.25 3.445313 7.695312 7.695313 7.695312h108.742187c4.246094 0 7.691407-3.445312 7.691407-7.695312zm0 0"/><path d="m331.46875 278.242188h-47.863281c-4.25 0-7.691407 3.445312-7.691407 7.691406 0 4.25 3.441407 7.695312 7.691407 7.695312h47.863281c4.25 0 7.691406-3.445312 7.691406-7.695312 0-4.246094-3.441406-7.691406-7.691406-7.691406zm0 0"/><path d="m135.03125 324.574219c0-4.246094-3.441406-7.691407-7.691406-7.691407h-65.464844c-4.246094 0-7.691406 3.445313-7.691406 7.691407 0 4.25 3.445312 7.695312 7.691406 7.695312h65.464844c4.25 0 7.691406-3.445312 7.691406-7.695312zm0 0"/><path d="m151.644531 316.882812c-4.25 0-7.695312 3.445313-7.695312 7.691407 0 4.25 3.445312 7.695312 7.695312 7.695312h78.519531c4.25 0 7.695313-3.445312 7.695313-7.695312 0-4.246094-3.445313-7.691407-7.695313-7.691407zm0 0"/><path d="m331.46875 316.882812h-74.195312c-4.25 0-7.695313 3.445313-7.695313 7.691407 0 4.25 3.445313 7.695312 7.695313 7.695312h74.195312c4.25 0 7.691406-3.445312 7.691406-7.695312 0-4.246094-3.441406-7.691407-7.691406-7.691407zm0 0"/><path d="m61.875 355.523438c-4.246094 0-7.691406 3.445312-7.691406 7.691406 0 4.25 3.445312 7.695312 7.691406 7.695312h40.328125c4.246094 0 7.691406-3.445312 7.691406-7.695312 0-4.246094-3.445312-7.691406-7.691406-7.691406zm0 0"/><path d="m131.078125 370.910156h129.933594c4.25 0 7.695312-3.445312 7.695312-7.695312 0-4.246094-3.445312-7.691406-7.695312-7.691406h-129.933594c-4.25 0-7.695313 3.445312-7.695313 7.691406 0 4.25 3.445313 7.695312 7.695313 7.695312zm0 0"/><path d="m331.46875 355.523438h-37.097656c-4.25 0-7.695313 3.445312-7.695313 7.691406 0 4.25 3.445313 7.695312 7.695313 7.695312h37.097656c4.25 0 7.691406-3.445312 7.691406-7.695312 0-4.246094-3.441406-7.691406-7.691406-7.691406zm0 0"/><path d="m256.386719 455.183594c-.796875 0-1.609375-.128906-2.40625-.398438-3.925781-1.332031-6.027344-5.589844-4.695313-9.511718 2.0625-6.089844 4.632813-13.671876 9.949219-19.671876 6.773437-7.636718 16.949219-10.738281 25.320313-7.710937 7.066406 2.550781 10.828124 8.304687 13.851562 12.925781 2.535156 3.882813 4.234375 6.289063 6.429688 6.949219 5.285156 1.597656 10.011718-.703125 17.226562-17.078125 1.671875-3.792969 6.09375-5.511719 9.890625-3.839844 3.789063 1.671875 5.507813 6.097656 3.835937 9.886719-3.832031 8.703125-14.023437 31.820313-35.292968 25.390625-7.578125-2.292969-11.496094-8.285156-14.644532-13.101562-2.167968-3.316407-4.039062-6.179688-6.390624-7.027344-2.523438-.914063-6.394532.613281-9 3.554687-3.308594 3.734375-5.171876 9.226563-6.972657 14.535157-1.058593 3.125-3.976562 5.097656-7.101562 5.097656zm0 0"/></g></svg>