<svg height="512pt" viewBox="-40 0 512 512" width="512pt" xmlns="http://www.w3.org/2000/svg"><path d="m417.402344 0h-357.121094c-8.285156 0-15 6.714844-15 15v482c0 8.285156 6.714844 15 15 15h357.125c8.28125 0 15-6.714844 15-15v-482c-.003906-8.285156-6.71875-15-15.003906-15zm0 0" fill="#006091"/><path d="m60.28125 0c-8.285156 0-15 6.714844-15 15v482c0 8.285156 6.714844 15 15 15h178.5625v-512zm0 0" fill="#0077b1"/><path d="m357.722656 396.546875-18.328125-58.238281c-5.84375-18.5625-25.710937-28.921875-44.292969-23.089844l-27.8125 8.730469c-1.308593-.066407-7.226562-2.390625-15.636718-13.355469-8.707032-11.347656-16.5625-27.320312-22.117188-44.972656-5.554687-17.644532-8.261718-35.222656-7.625-49.5.613282-13.796875 4.132813-19.085938 5.164063-19.890625.027343-.007813.058593-.015625.082031-.027344l27.726562-8.699219c9.003907-2.828125 16.367188-8.988281 20.734376-17.347656 4.367187-8.367188 5.214843-17.929688 2.378906-26.929688l-18.335938-58.265624c-5.84375-18.5625-25.710937-28.921876-44.292968-23.089844l-27.960938 8.777344c-.097656.03125-.195312.0625-.292969.09375-25.082031 8.058593-40.847656 36.496093-44.417969 80.128906-3.203124 39.199218 3.453126 87.550781 18.75 136.148437 15.292969 48.59375 37.527344 92.054688 62.609376 122.371094 22.972656 27.765625 46.820312 42.371094 68.582031 42.371094 4.785156 0 9.46875-.707031 14.019531-2.136719.289062-.09375.578125-.191406.859375-.300781l27.09375-8.503907c9-2.828124 16.363281-8.984374 20.730469-17.347656 4.371094-8.363281 5.214844-17.925781 2.382812-26.925781zm0 0" fill="#ffd838"/><g fill="#ffcd2a"><path d="m15 67.746094h61.664062c8.285157 0 15-6.714844 15-15 0-8.28125-6.714843-15-15-15h-61.664062c-8.285156 0-15 6.71875-15 15 0 8.285156 6.714844 15 15 15zm0 0"/><path d="m76.664062 119.355469h-61.664062c-8.285156 0-15 6.714843-15 15 0 8.28125 6.714844 15 15 15h61.664062c8.285157 0 15-6.71875 15-15 0-8.285157-6.714843-15-15-15zm0 0"/><path d="m76.664062 200.960938h-61.664062c-8.285156 0-15 6.714843-15 15 0 8.28125 6.714844 15 15 15h61.664062c8.285157 0 15-6.71875 15-15 0-8.285157-6.714843-15-15-15zm0 0"/><path d="m76.664062 282.566406h-61.664062c-8.285156 0-15 6.714844-15 15s6.714844 15 15 15h61.664062c8.285157 0 15-6.714844 15-15s-6.714843-15-15-15zm0 0"/><path d="m76.664062 364.175781h-61.664062c-8.285156 0-15 6.714844-15 15 0 8.28125 6.714844 15 15 15h61.664062c8.285157 0 15-6.71875 15-15 0-8.285156-6.714843-15-15-15zm0 0"/><path d="m76.664062 445.78125h-61.664062c-8.285156 0-15 6.714844-15 15s6.714844 15 15 15h61.664062c8.285157 0 15-6.714844 15-15s-6.714843-15-15-15zm0 0"/><path d="m254.882812 187.503906c9.003907-2.828125 16.367188-8.988281 20.734376-17.347656 4.367187-8.367188 5.214843-17.929688 2.378906-26.929688l-18.335938-58.265624c-3.328125-10.578126-11.214844-18.484376-20.816406-22.257813v129.832031zm0 0"/></g><path d="m229.53125 265.621094c-5.550781-17.644532-8.257812-35.222656-7.621094-49.5.613282-13.796875 4.128906-19.085938 5.164063-19.890625.027343-.007813.054687-.015625.082031-.027344l11.683594-3.664063v-129.832031c-7.25-2.847656-15.480469-3.34375-23.472656-.835937l-27.960938 8.777344c-.097656.03125-.195312.066406-.292969.097656-25.082031 8.058594-40.851562 36.496094-44.417969 80.128906-3.203124 39.199219 3.453126 87.550781 18.746094 136.144531 15.296875 48.597657 37.53125 92.054688 62.613282 122.375 4.898437 5.917969 9.835937 11.234375 14.789062 15.945313v-136.054688c-3.519531-7.300781-6.675781-15.289062-9.3125-23.664062zm0 0" fill="#ffd838"/><path d="m357.722656 396.546875-18.328125-58.238281c-5.84375-18.5625-25.710937-28.921875-44.292969-23.089844l-27.8125 8.730469c-1.308593-.066407-7.226562-2.390625-15.636718-13.355469-4.578125-5.964844-8.914063-13.214844-12.808594-21.308594v136.054688c18.257812 17.375 36.671875 26.421875 53.792969 26.421875 4.785156 0 9.46875-.707031 14.019531-2.136719.289062-.089844.578125-.1875.859375-.296875l27.09375-8.503906c9-2.828125 16.363281-8.988281 20.730469-17.347657 4.371094-8.367187 5.214844-17.929687 2.382812-26.929687zm0 0" fill="#ffcd2a"/></svg>