<svg height="512pt" viewBox="-1 0 512 512" width="512pt" xmlns="http://www.w3.org/2000/svg"><path d="m437.246094 272.917969-171.550782-171.550781c-5.859374-5.855469-15.355468-5.855469-21.214843 0l-171.546875 171.550781c-2.8125 2.8125-4.394532 6.628906-4.394532 10.605469v173.3125c0 30.417968 24.75 55.164062 55.167969 55.164062h262.765625c30.421875 0 55.167969-24.746094 55.167969-55.164062v-173.3125c0-3.976563-1.578125-7.792969-4.394531-10.605469zm0 0" fill="#e7f0ef"/><path d="m437.246094 272.917969-171.550782-171.550781c-2.929687-2.929688-6.765624-4.394532-10.605468-4.394532v415.027344h131.382812c30.421875 0 55.167969-24.746094 55.167969-55.164062v-173.3125c0-3.976563-1.578125-7.792969-4.394531-10.605469zm0 0" fill="#c5e1e6"/><path d="m255.089844 209.441406c-30.421875 0-55.167969 24.746094-55.167969 55.164063 0 30.421875 24.746094 55.167969 55.167969 55.167969 30.417968 0 55.164062-24.746094 55.164062-55.167969 0-30.417969-24.746094-55.164063-55.164062-55.164063zm0 0" fill="#a8ebfa"/><path d="m494.050781 216.109375-199.953125-199.949219c-10.417968-10.421875-24.269531-16.160156-39.007812-16.160156-14.734375 0-28.589844 5.738281-39.011719 16.15625h.003906c-.050781.046875-.097656.097656-.140625.144531l-199.8125 199.808594c-21.507812 21.511719-21.507812 56.507813.003906 78.023437 10.417969 10.417969 24.269532 16.152344 39.007813 16.152344 14.730469 0 28.585937-5.734375 39.007813-16.152344l160.941406-160.945312 160.945312 160.941406c10.417969 10.417969 24.269532 16.15625 39.003906 16.15625h.003907c14.730469 0 28.585937-5.738281 39.007812-16.15625 21.503907-21.515625 21.503907-56.511718 0-78.019531zm0 0" fill="#00969c"/><path d="m303.289062 369.53125h-96.398437c-8.285156 0-15 6.71875-15 15v127.46875h126.398437v-127.46875c0-8.28125-6.714843-15-15-15zm0 0" fill="#a75627"/><path d="m310.253906 264.605469c0-30.417969-24.746094-55.164063-55.164062-55.164063v110.332032c30.417968 0 55.164062-24.75 55.164062-55.167969zm0 0" fill="#76e2f8"/><path d="m494.050781 216.109375-199.953125-199.949219c-10.417968-10.421875-24.269531-16.160156-39.007812-16.160156v133.1875l160.945312 160.941406c10.417969 10.417969 24.269532 16.152344 39.003906 16.15625h.003907c14.730469 0 28.585937-5.738281 39.007812-16.15625 21.503907-21.515625 21.503907-56.511718 0-78.019531zm0 0" fill="#00767a"/><path d="m303.289062 512h15v-127.46875c0-8.28125-6.714843-15-15-15h-48.199218v142.46875zm0 0" fill="#7f3e18"/></svg>