<?xml version="1.0" encoding="iso-8859-1"?>
<!-- Generator: Adobe Illustrator 21.0.0, SVG Export Plug-In . SVG Version: 6.00 Build 0)  -->
<svg xmlns="http://www.w3.org/2000/svg" xmlns:xlink="http://www.w3.org/1999/xlink" version="1.1" id="Capa_1" x="0px" y="0px" viewBox="0 0 512 512" style="enable-background:new 0 0 512 512;" xml:space="preserve" width="512" height="512">
<g>
	<path style="fill:#D9D2CC;" d="M512,99.185c0-31.329-25.531-56.817-56.913-56.817c-28.651,0-52.413,21.248-56.334,48.787H113.247   c-3.921-27.538-27.684-48.787-56.334-48.787C25.531,42.368,0,67.856,0,99.185v313.629c0,0.071,0.01,0.139,0.011,0.209   C0.01,413.094,0,413.163,0,413.233c0,31.099,25.343,56.399,56.494,56.399h42.332h314.348h42.332   c31.151,0,56.494-25.3,56.494-56.399c0-0.071-0.01-0.139-0.01-0.209c0.001-0.071,0.01-0.139,0.01-0.209V99.185z"/>
	<path style="fill:#D8D0CD;" d="M512,99.185c0-31.329-25.531-56.817-56.913-56.817c-28.651,0-52.413,21.248-56.334,48.787H257.88   v378.478h155.294h42.332c31.151,0,56.494-25.3,56.494-56.399c0-0.071-0.01-0.139-0.01-0.209c0.001-0.071,0.01-0.139,0.01-0.209   V99.185z"/>
	<path style="fill:#FFF3F3;" d="M455.506,439.632h-42.332H98.826H56.494C41.885,439.632,30,427.79,30,413.233   c0-0.071-0.01-0.139-0.011-0.209c0.001-0.071,0.011-0.139,0.011-0.209c0-14.787,12.073-26.817,26.913-26.817   s26.913,12.03,26.913,26.817c0,8.284,6.716,15,15,15s15-6.716,15-15v-291.66h284.348v288.525c0,0.354,0.029,0.702,0.053,1.05   c-0.025,0.693-0.053,1.386-0.053,2.085c0,8.284,6.716,15,15,15s15-6.716,15-15c0-14.787,12.073-26.817,26.913-26.817   S482,398.028,482,412.815c0,0.071,0.01,0.139,0.01,0.209c-0.001,0.071-0.01,0.139-0.01,0.209   C482,427.79,470.115,439.632,455.506,439.632z"/>
	<path style="fill:#F2EFEA;" d="M482,412.815c0-14.787-12.073-26.817-26.913-26.817s-26.913,12.03-26.913,26.817   c0,8.284-6.716,15-15,15s-15-6.716-15-15c0-0.699,0.028-1.392,0.053-2.085c-0.024-0.348-0.053-0.695-0.053-1.05V121.155H257.88   v318.478h155.294h42.332c14.609,0,26.494-11.842,26.494-26.399c0-0.071,0.01-0.139,0.01-0.209   C482.01,412.953,482,412.885,482,412.815z"/>
	<path style="fill:#127793;" d="M352.418,232.592l-83.474-86.548c-2.782-2.884-6.602-4.536-10.609-4.586   c-4.014-0.017-7.867,1.505-10.72,4.318l-87.769,86.548c-2.858,2.819-4.468,6.666-4.468,10.681v89.103c0,8.284,6.716,15,15,15   h171.243c8.284,0,15-6.716,15-15v-89.103C356.621,239.121,355.115,235.388,352.418,232.592z M235.931,317.108v-23.503   c0-11.066,9.002-20.068,20.068-20.068s20.068,9.002,20.068,20.068v23.503H235.931z M326.621,317.108h-20.553v-23.503   c0-27.608-22.46-50.068-50.068-50.068s-50.068,22.46-50.068,50.068v23.503h-20.553V249.28l72.501-71.493l68.741,71.273V317.108z"/>
	<path style="fill:#127793;" d="M263.255,409.629h-92.876c-8.284,0-15-6.716-15-15s6.716-15,15-15h92.876c8.284,0,15,6.716,15,15   S271.539,409.629,263.255,409.629z"/>
	<path style="fill:#0D5E7B;" d="M352.418,232.592l-83.474-86.548c-2.782-2.884-6.602-4.536-10.609-4.586   c-0.153,0-0.303,0.016-0.455,0.02v36.309l68.741,71.273v68.048h-20.553v-23.503c0-26.977-21.449-49.027-48.188-50.021v30.048   c10.187,0.952,18.188,9.542,18.188,19.973v23.503H257.88v30h83.741c8.284,0,15-6.716,15-15v-89.103   C356.621,239.121,355.115,235.388,352.418,232.592z"/>
	<path style="fill:#0D5E7B;" d="M263.255,409.629c8.284,0,15-6.716,15-15s-6.716-15-15-15h-5.374v30H263.255z"/>
	<path style="fill:#0D5E7B;" d="M341.621,409.629h-32.873c-8.284,0-15-6.716-15-15s6.716-15,15-15h32.873c8.284,0,15,6.716,15,15   S349.906,409.629,341.621,409.629z"/>
</g>















</svg>
